<?xml version="1.0" encoding="UTF-8" standalone="no"?>
<!-- Created with Inkscape (http://www.inkscape.org/) -->
<svg
   xmlns:svg="http://www.w3.org/2000/svg"
   xmlns="http://www.w3.org/2000/svg"
   version="1.0"
   width="1056"
   height="1481"
   id="svg2">
  <defs
     id="defs4" />
  <g
     transform="translate(-167.71428,284.56641)"
     id="layer1">
    <path
       d="M 57.142857,323.85714 L 997.14286,323.85714"
       transform="translate(167.71428,-284.56641)"
       id="path4040"
       style="fill:none;fill-rule:evenodd;stroke:#000000;stroke-width:1px;stroke-linecap:butt;stroke-linejoin:miter;stroke-opacity:1" />
    <path
       d="M 224.85714,48.04073 L 1164.8571,48.04073"
       id="path4042"
       style="fill:none;fill-rule:evenodd;stroke:#000000;stroke-width:1px;stroke-linecap:butt;stroke-linejoin:miter;stroke-opacity:1" />
    <path
       d="M 224.85714,58.755016 L 1164.8571,58.755016"
       id="path4044"
       style="fill:none;fill-rule:evenodd;stroke:#000000;stroke-width:1px;stroke-linecap:butt;stroke-linejoin:miter;stroke-opacity:1" />
    <path
       d="M 224.85714,70.897873 L 1164.8571,70.897873"
       id="path4046"
       style="fill:none;fill-rule:evenodd;stroke:#000000;stroke-width:1px;stroke-linecap:butt;stroke-linejoin:miter;stroke-opacity:1" />
    <path
       d="M 224.85714,83.04073 L 1164.8571,83.04073"
       id="path4048"
       style="fill:none;fill-rule:evenodd;stroke:#000000;stroke-width:1px;stroke-linecap:butt;stroke-linejoin:miter;stroke-opacity:1" />
    <path
       d="M 224.85714,95.897873 L 1164.8571,95.897873"
       id="path4050"
       style="fill:none;fill-rule:evenodd;stroke:#000000;stroke-width:1px;stroke-linecap:butt;stroke-linejoin:miter;stroke-opacity:1" />
    <path
       d="M 224.85714,110.54073 L 1164.8571,110.54073"
       id="path4052"
       style="fill:none;fill-rule:evenodd;stroke:#000000;stroke-width:1px;stroke-linecap:butt;stroke-linejoin:miter;stroke-opacity:1" />
    <path
       d="M 224.86091,129.10709 L 1164.8554,125.89958"
       id="path4054"
       style="fill:none;fill-rule:evenodd;stroke:#000000;stroke-width:1px;stroke-linecap:butt;stroke-linejoin:miter;stroke-opacity:1" />
    <path
       d="M 224.86222,149.11139 L 1164.8469,143.75787"
       id="path4056"
       style="fill:none;fill-rule:evenodd;stroke:#000000;stroke-width:1px;stroke-linecap:butt;stroke-linejoin:miter;stroke-opacity:1" />
    <path
       d="M 224.86209,170.94349 L 1164.8444,165.18666"
       id="path4058"
       style="fill:none;fill-rule:evenodd;stroke:#000000;stroke-width:1px;stroke-linecap:butt;stroke-linejoin:miter;stroke-opacity:1" />
    <path
       d="M 224.86962,196.31037 L 1164.8159,186.26044"
       id="path4060"
       style="fill:none;fill-rule:evenodd;stroke:#000000;stroke-width:1px;stroke-linecap:butt;stroke-linejoin:miter;stroke-opacity:1" />
    <path
       d="M 224.8787,224.54357 L 1164.7636,209.83448"
       id="path4062"
       style="fill:none;fill-rule:evenodd;stroke:#000000;stroke-width:1px;stroke-linecap:butt;stroke-linejoin:miter;stroke-opacity:1" />
    <path
       d="M 224.8826,257.08365 L 1164.711,239.12202"
       id="path4064"
       style="fill:none;fill-rule:evenodd;stroke:#000000;stroke-width:1px;stroke-linecap:butt;stroke-linejoin:miter;stroke-opacity:1" />
    <path
       d="M 224.88344,293.93266 L 1164.6747,274.12305"
       id="path4066"
       style="fill:none;fill-rule:evenodd;stroke:#000000;stroke-width:1px;stroke-linecap:butt;stroke-linejoin:miter;stroke-opacity:1" />
    <path
       d="M 224.88553,335.05016 L 1164.6197,312.69591"
       id="path4068"
       style="fill:none;fill-rule:evenodd;stroke:#000000;stroke-width:1px;stroke-linecap:butt;stroke-linejoin:miter;stroke-opacity:1" />
    <path
       d="M 224.88736,385.77555 L 1164.6542,364.83806"
       id="path4070"
       style="fill:none;fill-rule:evenodd;stroke:#000000;stroke-width:1px;stroke-linecap:butt;stroke-linejoin:miter;stroke-opacity:1" />
    <path
       d="M 224.89872,446.99496 L 1164.5368,420.91255"
       id="path4072"
       style="fill:none;fill-rule:evenodd;stroke:#000000;stroke-width:1px;stroke-linecap:butt;stroke-linejoin:miter;stroke-opacity:1" />
    <path
       d="M 224.89872,521.99496 L 1164.5368,495.91255"
       id="path4074"
       style="fill:none;fill-rule:evenodd;stroke:#000000;stroke-width:3;stroke-linecap:butt;stroke-linejoin:miter;stroke-miterlimit:4;stroke-dasharray:none;stroke-opacity:1" />
    <path
       d="M 224.87815,626.26038 L 1164.0738,587.38292"
       id="path4076"
       style="fill:none;fill-rule:evenodd;stroke:#000000;stroke-width:1;stroke-linecap:butt;stroke-linejoin:miter;stroke-miterlimit:4;stroke-dasharray:none;stroke-opacity:1" />
    <path
       d="M 224.90638,759.41848 L 1163.7469,712.74558"
       id="path4078"
       style="fill:none;fill-rule:evenodd;stroke:#000000;stroke-width:1;stroke-linecap:butt;stroke-linejoin:miter;stroke-miterlimit:4;stroke-dasharray:none;stroke-opacity:1" />
    <path
       d="M 225.12693,952.06432 L 1162.6995,884.55404"
       id="path4080"
       style="fill:none;fill-rule:evenodd;stroke:#000000;stroke-width:1;stroke-linecap:butt;stroke-linejoin:miter;stroke-miterlimit:4;stroke-dasharray:none;stroke-opacity:1" />
    <path
       d="M 537.02235,109.21284 L 54.548237,650.65461"
       transform="translate(167.71428,-284.56641)"
       id="path4082"
       style="fill:none;fill-rule:evenodd;stroke:#000000;stroke-width:1px;stroke-linecap:butt;stroke-linejoin:miter;stroke-opacity:1" />
    <path
       d="M 537.02235,109.21284 L 54.548237,851.67497"
       transform="translate(167.71428,-284.56641)"
       id="path4088"
       style="fill:none;fill-rule:evenodd;stroke:#000000;stroke-width:1px;stroke-linecap:butt;stroke-linejoin:miter;stroke-opacity:1" />
    <path
       d="M 537.02235,109.21284 L 55.55839,1273.9187"
       transform="translate(167.71428,-284.56641)"
       id="path4090"
       style="fill:none;fill-rule:evenodd;stroke:#000000;stroke-width:1px;stroke-linecap:butt;stroke-linejoin:miter;stroke-opacity:1" />
    <path
       d="M 537.02235,109.21284 L 297.48992,1420.1383"
       transform="translate(167.71428,-284.56641)"
       id="path4092"
       style="fill:none;fill-rule:evenodd;stroke:#000000;stroke-width:1px;stroke-linecap:butt;stroke-linejoin:miter;stroke-opacity:1" />
    <path
       d="M 537.02235,109.21284 L 602.66849,1422.6383"
       transform="translate(167.71428,-284.56641)"
       id="path4098"
       style="fill:none;fill-rule:evenodd;stroke:#000000;stroke-width:1px;stroke-linecap:butt;stroke-linejoin:miter;stroke-opacity:1" />
    <path
       d="M 537.02235,109.21284 L 898.73992,1415.8527"
       transform="translate(167.71428,-284.56641)"
       id="path4100"
       style="fill:none;fill-rule:evenodd;stroke:#000000;stroke-width:1px;stroke-linecap:butt;stroke-linejoin:miter;stroke-opacity:1" />
    <path
       d="M 537.02235,109.21284 L 997.99778,1025.9412"
       transform="translate(167.71428,-284.56641)"
       id="path4102"
       style="fill:none;fill-rule:evenodd;stroke:#000000;stroke-width:1px;stroke-linecap:butt;stroke-linejoin:miter;stroke-opacity:1" />
    <path
       d="M 537.02235,109.21284 L 999.70241,742.71968"
       transform="translate(167.71428,-284.56641)"
       id="path4104"
       style="fill:none;fill-rule:evenodd;stroke:#000000;stroke-width:1px;stroke-linecap:butt;stroke-linejoin:miter;stroke-opacity:1" />
    <path
       d="M 537.02235,109.21284 L 996.92449,590.06038"
       transform="translate(167.71428,-284.56641)"
       id="path4106"
       style="fill:none;fill-rule:evenodd;stroke:#000000;stroke-width:1px;stroke-linecap:butt;stroke-linejoin:miter;stroke-opacity:1" />
    <path
       d="M 537.02235,109.21284 L 819.63278,1418.5313"
       transform="translate(167.71428,-284.56641)"
       id="path4108"
       style="fill:none;fill-rule:evenodd;stroke:#0000ee;stroke-width:4;stroke-linecap:butt;stroke-linejoin:miter;stroke-miterlimit:4;stroke-dasharray:none;stroke-opacity:1" />
    <path
       d="M 223.18546,449.27919 L 1162.518,927.12336"
       id="path4110"
       style="fill:none;fill-rule:evenodd;stroke:#0000ee;stroke-width:3;stroke-linecap:butt;stroke-linejoin:miter;stroke-miterlimit:4;stroke-dasharray:none;stroke-opacity:1" />
    <path
       d="M 340.70139,530.00146 L 365.66232,530.00146 C 373.08416,530.00152 378.77426,531.65517 382.73264,534.9624 C 386.71696,538.2437 388.70914,542.9312 388.7092,549.0249 C 388.70914,555.14473 386.71696,559.85826 382.73264,563.16553 C 378.77426,566.4468 373.08416,568.08742 365.66232,568.0874 L 355.74045,568.0874 L 355.74045,588.32178 L 340.70139,588.32178 L 340.70139,530.00146 M 355.74045,540.8999 L 355.74045,557.18896 L 364.06076,557.18896 C 366.97739,557.189 369.23,556.48587 370.81857,555.07959 C 372.40708,553.64733 373.20135,551.62911 373.20139,549.0249 C 373.20135,546.42078 372.40708,544.41557 370.81857,543.00928 C 369.23,541.60307 366.97739,540.89995 364.06076,540.8999 L 355.74045,540.8999"
       id="text4114"
       style="font-size:80px;font-style:normal;font-variant:normal;font-weight:bold;font-stretch:normal;text-align:center;text-anchor:middle;fill:#0000ee;fill-opacity:1;stroke:none;stroke-width:1px;stroke-linecap:butt;stroke-linejoin:miter;stroke-opacity:1;font-family:Sans;-inkscape-font-specification:Sans Bold" />
    <path
       d="M 545.68463,692.94794 L 544.51276,692.94794 C 534.90336,692.94794 527.42941,690.29169 522.09088,684.97919 C 516.75233,679.6667 514.08306,672.27087 514.08307,662.79169 C 514.08306,653.3386 516.73931,645.92975 522.05182,640.56512 C 527.39034,635.2006 534.73409,632.51831 544.08307,632.51825 C 553.53615,632.51831 560.89291,635.17456 566.15338,640.487 C 571.43978,645.79955 574.083,653.23443 574.08307,662.79169 C 574.083,669.35421 572.67676,675.00525 569.86432,679.74481 C 567.0778,684.4844 563.05437,688.05211 557.79401,690.44794 L 569.55182,703.57294 L 555.21588,703.57294 L 545.68463,692.94794 M 544.08307,643.41669 C 539.49971,643.41674 535.94502,645.10944 533.41901,648.49481 C 530.89294,651.88027 529.62992,656.64589 529.62994,662.79169 C 529.62992,669.04171 530.8669,673.83337 533.34088,677.16669 C 535.81481,680.47399 539.39554,682.12763 544.08307,682.12762 C 548.69241,682.12763 552.26011,680.43493 554.78619,677.0495 C 557.31219,673.6641 558.57521,668.9115 558.57526,662.79169 C 558.57521,656.64589 557.31219,651.88027 554.78619,648.49481 C 552.26011,645.10944 548.69241,643.41674 544.08307,643.41669"
       id="text4118"
       style="font-size:80px;font-style:normal;font-variant:normal;font-weight:bold;font-stretch:normal;text-align:center;text-anchor:middle;fill:#0000ee;fill-opacity:1;stroke:none;stroke-width:1px;stroke-linecap:butt;stroke-linejoin:miter;stroke-opacity:1;font-family:Sans;-inkscape-font-specification:Sans Bold" />
    <path
       d="M 839.62994,330.0015 L 864.59088,330.0015 C 872.01272,330.00155 877.70282,331.6552 881.66119,334.96243 C 885.64552,338.24373 887.6377,342.93123 887.63776,349.02493 C 887.6377,355.14476 885.64552,359.85829 881.66119,363.16556 C 877.70282,366.44683 872.01272,368.08745 864.59088,368.08743 L 854.66901,368.08743 L 854.66901,388.32181 L 839.62994,388.32181 L 839.62994,330.0015 M 854.66901,340.89993 L 854.66901,357.189 L 862.98932,357.189 C 865.90595,357.18903 868.15855,356.4859 869.74713,355.07962 C 871.33563,353.64736 872.1299,351.62914 872.12994,349.02493 C 872.1299,346.42081 871.33563,344.4156 869.74713,343.00931 C 868.15855,341.6031 865.90595,340.89998 862.98932,340.89993 L 854.66901,340.89993 M 929.04401,338.16556 L 929.04401,358.63431 L 949.43463,358.63431 L 949.43463,367.85306 L 929.04401,367.85306 L 929.04401,388.32181 L 919.74713,388.32181 L 919.74713,367.85306 L 899.35651,367.85306 L 899.35651,358.63431 L 919.74713,358.63431 L 919.74713,338.16556 L 929.04401,338.16556 M 993.49713,389.3765 L 992.32526,389.3765 C 982.71586,389.37649 975.24191,386.72025 969.90338,381.40775 C 964.56483,376.09526 961.89556,368.69943 961.89557,359.22025 C 961.89556,349.76716 964.55181,342.35831 969.86432,336.99368 C 975.20284,331.62916 982.54659,328.94687 991.89557,328.94681 C 1001.3487,328.94687 1008.7054,331.60311 1013.9659,336.91556 C 1019.2523,342.2281 1021.8955,349.66299 1021.8956,359.22025 C 1021.8955,365.78277 1020.4893,371.4338 1017.6768,376.17337 C 1014.8903,380.91296 1010.8669,384.48067 1005.6065,386.8765 L 1017.3643,400.0015 L 1003.0284,400.0015 L 993.49713,389.3765 M 991.89557,339.84525 C 987.31221,339.84529 983.75752,341.538 981.23151,344.92337 C 978.70544,348.30883 977.44242,353.07445 977.44244,359.22025 C 977.44242,365.47027 978.6794,370.26193 981.15338,373.59525 C 983.62731,376.90255 987.20804,378.55619 991.89557,378.55618 C 996.50491,378.55619 1000.0726,376.86349 1002.5987,373.47806 C 1005.1247,370.09266 1006.3877,365.34006 1006.3878,359.22025 C 1006.3877,353.07445 1005.1247,348.30883 1002.5987,344.92337 C 1000.0726,341.538 996.50491,339.84529 991.89557,339.84525"
       id="text4122"
       style="font-size:80px;font-style:normal;font-variant:normal;font-weight:bold;font-stretch:normal;text-align:center;text-anchor:middle;fill:#0000ee;fill-opacity:1;stroke:none;stroke-width:1px;stroke-linecap:butt;stroke-linejoin:miter;stroke-opacity:1;font-family:Sans;-inkscape-font-specification:Sans Bold" />
    <path
       d="M 951.25647,760.6795 C 954.40748,760.67954 956.66008,760.0936 958.01428,758.92169 C 959.39445,757.74985 960.08456,755.82277 960.08459,753.14044 C 960.08456,750.48423 959.39445,748.58319 958.01428,747.43732 C 956.66008,746.29153 954.40748,745.71861 951.25647,745.71857 L 944.92834,745.71857 L 944.92834,760.6795 L 951.25647,760.6795 M 944.92834,771.07013 L 944.92834,793.14044 L 929.88928,793.14044 L 929.88928,734.82013 L 952.85803,734.82013 C 960.54029,734.82019 966.16528,736.10925 969.73303,738.68732 C 973.32673,741.26549 975.1236,745.34101 975.12366,750.91388 C 975.1236,754.76808 974.18611,757.93214 972.31116,760.40607 C 970.46215,762.88006 967.66267,764.70297 963.91272,765.87482 C 965.96997,766.34359 967.8059,767.4113 969.42053,769.07794 C 971.06111,770.71859 972.71475,773.21859 974.38147,776.57794 L 982.54553,793.14044 L 966.52991,793.14044 L 959.42053,778.64825 C 957.98821,775.73161 956.52987,773.73942 955.04553,772.67169 C 953.58717,771.60401 951.63404,771.07015 949.18616,771.07013 L 944.92834,771.07013"
       id="text4126"
       style="font-size:80px;font-style:normal;font-variant:normal;font-weight:bold;font-stretch:normal;text-align:center;text-anchor:middle;fill:#0099ff;fill-opacity:1;stroke:none;stroke-width:1px;stroke-linecap:butt;stroke-linejoin:miter;stroke-opacity:1;font-family:Sans;-inkscape-font-specification:Sans Bold" />
    <path
       d="M 888.74395,603.26006 L 874.2273,540.58249 L 870.27899,541.48417 L 872.05349,531.54431 L 878.17561,539.6808 L 874.2273,540.58249"
       id="path4136"
       style="fill:#0000ee;fill-opacity:1;fill-rule:evenodd;stroke:#0000ee;stroke-width:3.99999952;stroke-linecap:butt;stroke-linejoin:miter;stroke-miterlimit:4;stroke-dasharray:none;stroke-opacity:1" />
    <path
       d="M 719.69969,717.80728 L 776.75663,747.53466 L 778.63899,743.94872 L 785.03665,751.76023 L 774.87429,751.12059 L 776.75663,747.53466"
       id="path4138"
       style="fill:#0000ee;fill-opacity:1;fill-rule:evenodd;stroke:#0000ee;stroke-width:3.99999952;stroke-linecap:butt;stroke-linejoin:miter;stroke-miterlimit:4;stroke-dasharray:none;stroke-opacity:1" />
    <path
       d="M 880.86608,626.44252 L 862.46748,661.61216 L 867.56248,661.61216 L 885.96108,626.44252 L 880.86608,626.44252 z"
       id="rect4146"
       style="opacity:1;fill:#0000ee;fill-opacity:1;stroke:none;stroke-width:4;stroke-linecap:round;stroke-linejoin:miter;stroke-miterlimit:4;stroke-dasharray:none;stroke-opacity:1" />
    <path
       d="M 894.08037,626.44252 L 875.68177,661.61216 L 880.77677,661.61216 L 899.17537,626.44252 L 894.08037,626.44252 z"
       id="path4150"
       style="opacity:1;fill:#0000ee;fill-opacity:1;stroke:none;stroke-width:4;stroke-linecap:round;stroke-linejoin:miter;stroke-miterlimit:4;stroke-dasharray:none;stroke-opacity:1" />
    <path
       d="M 829.43751,406.44252 L 811.03891,441.61216 L 816.13391,441.61216 L 834.53251,406.44252 L 829.43751,406.44252 z"
       id="path4152"
       style="opacity:1;fill:#0000ee;fill-opacity:1;stroke:none;stroke-width:4;stroke-linecap:round;stroke-linejoin:miter;stroke-miterlimit:4;stroke-dasharray:none;stroke-opacity:1" />
    <path
       d="M 842.6518,406.44252 L 824.2532,441.61216 L 829.3482,441.61216 L 847.7468,406.44252 L 842.6518,406.44252 z"
       id="path4154"
       style="opacity:1;fill:#0000ee;fill-opacity:1;stroke:none;stroke-width:4;stroke-linecap:round;stroke-linejoin:miter;stroke-miterlimit:4;stroke-dasharray:none;stroke-opacity:1" />
    <path
       d="M 711.53564,-210.73512 C 711.53562,-216.20385 711.01804,-220.0515 709.98291,-222.27809 C 708.96726,-224.52415 707.24851,-225.6472 704.82666,-225.64723 C 702.40477,-225.6472 700.67625,-224.52415 699.64111,-222.27809 C 698.60594,-220.0515 698.08836,-216.20385 698.08838,-210.73512 C 698.08836,-205.20776 698.60594,-201.31128 699.64111,-199.04567 C 700.67625,-196.78004 702.40477,-195.64723 704.82666,-195.64723 C 707.22898,-195.64723 708.94773,-196.78004 709.98291,-199.04567 C 711.01804,-201.31128 711.53562,-205.20776 711.53564,-210.73512 M 722.81494,-210.64723 C 722.8149,-203.40112 721.2524,-197.80543 718.12744,-193.86012 C 715.00241,-189.93434 710.56882,-187.97145 704.82666,-187.97145 C 699.06493,-187.97145 694.62157,-189.93434 691.49658,-193.86012 C 688.37158,-197.80543 686.80908,-203.40112 686.80908,-210.64723 C 686.80908,-217.91283 688.37158,-223.50853 691.49658,-227.43434 C 694.62157,-231.37961 699.06493,-233.35227 704.82666,-233.35231 C 710.56882,-233.35227 715.00241,-231.37961 718.12744,-227.43434 C 721.2524,-223.50853 722.8149,-217.91283 722.81494,-210.64723"
       id="text4156"
       style="font-size:60px;font-style:normal;font-variant:normal;font-weight:bold;font-stretch:normal;text-align:center;text-anchor:middle;fill:#0000ee;fill-opacity:1;stroke:none;stroke-width:1px;stroke-linecap:butt;stroke-linejoin:miter;stroke-opacity:1;font-family:Sans;-inkscape-font-specification:Sans Bold" />
    <path
       d="M 558.81653,537.80792 C 559.56847,537.80793 560.23253,537.58332 560.80872,537.13409 C 561.39464,536.68488 561.88292,536.0257 562.27356,535.15656 C 562.54698,534.54133 562.79601,533.84309 563.02063,533.06183 C 563.24523,532.27082 563.45519,531.33821 563.65051,530.26398 C 563.81651,529.39485 563.94347,528.59407 564.03137,527.86163 C 564.11925,527.12923 564.16319,526.50423 564.16321,525.98663 C 564.16319,524.8929 563.96788,524.09212 563.57727,523.58429 C 563.18663,523.06673 562.58116,522.80794 561.76086,522.80792 C 560.99913,522.80794 560.33019,523.02767 559.75403,523.4671 C 559.17785,523.89681 558.69933,524.55599 558.31848,525.44464 C 558.0255,526.07942 557.75695,526.80208 557.51282,527.61261 C 557.27843,528.42317 557.07336,529.30696 556.89758,530.26398 C 556.73156,531.14289 556.60461,531.95832 556.51672,532.71027 C 556.42883,533.46223 556.38488,534.09699 556.38489,534.61456 C 556.38488,535.69855 556.58508,536.50422 556.98547,537.03156 C 557.38586,537.54914 557.99621,537.80793 558.81653,537.80792 M 569.65637,526.82159 C 569.65635,528.76497 569.3878,530.65461 568.85071,532.49054 C 568.31358,534.32648 567.56163,535.93781 566.59485,537.32452 C 565.6085,538.75031 564.4171,539.82941 563.02063,540.56183 C 561.62413,541.28448 560.06652,541.64581 558.34778,541.64581 C 555.95519,541.64581 554.11926,540.9671 552.83997,539.60968 C 551.57043,538.25226 550.93567,536.29914 550.93567,533.75031 C 550.93567,531.83625 551.19934,529.96125 551.72668,528.12531 C 552.26379,526.27962 553.01086,524.67317 553.9679,523.30597 C 554.97375,521.87044 556.17004,520.78646 557.55676,520.05402 C 558.94347,519.32162 560.50597,518.95541 562.24426,518.95538 C 564.61729,518.95541 566.44346,519.639 567.72278,521.00616 C 569.01182,522.36361 569.65635,524.30208 569.65637,526.82159"
       id="text4160"
       style="font-size:30px;font-style:italic;font-variant:normal;font-weight:bold;font-stretch:normal;text-align:center;text-anchor:middle;fill:#000000;fill-opacity:1;stroke:none;stroke-width:1px;stroke-linecap:butt;stroke-linejoin:miter;stroke-opacity:1;font-family:Sans;-inkscape-font-specification:Sans Bold Italic" />
    <path
       d="M 257.4419,-23.185809 L 246.8819,-40.705809 C 246.0819,-41.985808 245.9219,-42.46581 245.9219,-43.185809 C 245.9219,-44.385808 247.36191,-44.945809 250.4019,-44.945809 L 251.6819,-44.945809 L 251.6819,-49.265809 L 222.8819,-49.265809 L 222.8819,-44.945809 C 226.4819,-44.945809 227.68191,-44.385807 229.2019,-42.065809 L 245.5219,-15.905809 L 245.5219,-3.0258088 C 245.5219,1.9341862 245.5219,2.3341918 244.9619,2.9741912 C 244.2419,3.8541903 242.5619,4.1741912 238.3219,4.1741912 L 236.5619,4.1741912 L 236.5619,8.4941912 L 268.8819,8.4941912 L 268.8819,4.1741912 L 267.1219,4.1741912 C 262.88191,4.1741912 261.2019,3.8541903 260.4819,2.9741912 C 259.9219,2.3341918 259.9219,2.0141861 259.9219,-3.0258088 L 259.9219,-16.945809 L 271.9219,-37.505809 C 274.9619,-42.465804 278.16191,-44.625809 282.6419,-44.945809 L 282.6419,-49.265809 L 259.0419,-49.265809 L 259.0419,-44.945809 L 260.7219,-44.945809 C 264.2419,-44.945809 266.5619,-43.425807 266.5619,-41.105809 C 266.5619,-40.14581 266.0819,-38.705808 265.4419,-37.425809 L 257.4419,-23.185809 M 308.70315,1.1341912 L 349.02315,1.1341912 L 349.02315,-8.0658088 L 308.70315,-8.0658088 L 308.70315,1.1341912 M 308.70315,-15.345809 L 349.02315,-15.345809 L 349.02315,-24.545809 L 308.70315,-24.545809 L 308.70315,-15.345809 M 387.54065,-24.545809 L 399.22065,-38.785809 C 402.82065,-43.025805 405.62066,-44.625809 409.78065,-44.945809 L 409.78065,-49.265809 L 385.14065,-49.265809 L 385.14065,-44.945809 C 390.18065,-44.945809 392.82065,-43.505806 392.82065,-40.865809 C 392.82065,-39.58581 392.02065,-37.985807 390.10065,-35.745809 L 384.50065,-28.865809 L 376.10065,-40.945809 C 375.54065,-41.745808 375.30065,-42.385809 375.30065,-43.025809 C 375.30065,-44.545807 376.02066,-44.785809 380.74065,-44.945809 L 380.74065,-49.265809 L 352.10065,-49.265809 L 352.10065,-44.945809 C 355.62065,-44.705809 356.74066,-44.065806 358.98065,-40.865809 L 375.38065,-17.505809 L 363.62065,-3.0258088 C 358.98066,2.6541855 356.74065,4.0141913 352.10065,4.1741912 L 352.10065,8.4941912 L 378.58065,8.4941912 L 378.58065,4.1741912 C 372.50066,4.0141913 369.94065,2.8141884 369.94065,0.01419117 C 369.94065,-1.2658076 370.50065,-2.7058101 371.54065,-3.9858088 L 378.58065,-12.945809 L 387.30065,-0.46580883 C 387.94065,0.33419037 388.34065,1.454192 388.34065,2.2541912 C 388.34065,3.6141898 387.06065,4.0941912 383.06065,4.1741912 L 383.06065,8.4941912 L 411.86065,8.4941912 L 411.86065,4.1741912 C 407.62066,4.0141913 406.66065,3.294184 401.70065,-3.9058088 L 387.54065,-24.545809 M 453.5219,-7.1058088 L 453.5219,8.4941912 L 462.7219,8.4941912 L 462.7219,-7.1058088 L 478.2419,-7.1058088 L 478.2419,-16.305809 L 462.7219,-16.305809 L 462.7219,-31.905809 L 453.5219,-31.905809 L 453.5219,-16.305809 L 437.9219,-16.305809 L 437.9219,-7.1058088 L 453.5219,-7.1058088 M 511.9594,-48.145809 L 509.1594,-48.145809 C 504.19941,-44.385813 498.35939,-42.785809 488.9194,-42.625809 L 488.9194,-38.145809 L 492.2794,-38.145809 C 499.3994,-38.065809 499.3994,-38.065802 499.3994,-31.425809 L 499.3994,-3.0258088 C 499.3994,1.9341862 499.3994,2.3341918 498.8394,2.9741912 C 498.1194,3.8541903 496.4394,4.1741912 492.1994,4.1741912 L 489.6394,4.1741912 L 489.6394,8.4941912 L 521.5594,8.4941912 L 521.5594,4.1741912 L 518.9994,4.1741912 C 514.91941,4.1741912 513.1594,3.8541903 512.5194,2.9741912 C 511.9594,2.3341918 511.9594,2.0141861 511.9594,-3.0258088 L 511.9594,-48.145809"
       id="text4164"
       style="font-size:80px;font-style:normal;font-variant:normal;font-weight:bold;font-stretch:normal;text-align:start;text-anchor:start;fill:#000000;fill-opacity:1;stroke:none;stroke-width:1;stroke-linecap:butt;stroke-linejoin:miter;stroke-miterlimit:4;stroke-opacity:1;font-family:Century Schoolbook L;-inkscape-font-specification:Century Schoolbook L Medium" />
    <path
       d="M 302.23198,-31.858649 L 301.79198,-29.858649 C 301.43198,-28.258651 301.19198,-27.738649 300.87198,-27.538649 C 300.47198,-27.258649 300.39198,-27.258649 297.87198,-27.218649 L 290.15198,-27.218649 C 291.55198,-28.418648 292.59198,-29.17865 294.15198,-30.218649 C 299.71197,-33.818645 300.95198,-34.73865 302.11198,-36.218649 C 303.47198,-38.018647 304.27198,-40.138651 304.27198,-42.018649 C 304.27198,-46.298645 300.07197,-49.538649 294.43198,-49.538649 C 288.99198,-49.538649 284.79198,-46.018644 284.79198,-41.458649 C 284.79198,-38.658652 286.35198,-36.858649 288.75198,-36.858649 C 290.83198,-36.858649 292.15198,-38.178651 292.15198,-40.258649 C 292.15198,-41.978647 291.39198,-42.97865 289.55198,-43.858649 C 289.11198,-44.058649 288.91198,-44.298649 288.91198,-44.618649 C 288.91198,-45.898648 291.07198,-47.258649 293.07198,-47.258649 C 295.87197,-47.258649 297.47198,-45.538646 297.47198,-42.578649 C 297.47198,-39.258652 296.19197,-36.898644 291.95198,-32.378649 C 287.47198,-27.658654 285.91198,-25.818646 283.91198,-22.938649 L 283.91198,-21.058649 C 284.95198,-21.178649 285.43198,-21.218649 285.99198,-21.218649 L 301.03198,-21.218649 C 301.71198,-21.218649 302.27198,-21.178649 303.47198,-21.058649 L 304.39198,-31.858649 L 302.23198,-31.858649"
       id="text4172"
       style="font-size:40px;font-style:normal;font-variant:normal;font-weight:bold;font-stretch:normal;text-align:center;text-anchor:middle;fill:#000000;fill-opacity:1;stroke:none;stroke-width:1;stroke-linecap:butt;stroke-linejoin:miter;stroke-miterlimit:4;stroke-opacity:1;font-family:Century Schoolbook L;-inkscape-font-specification:Century Schoolbook L Medium" />
    <path
       d="M 424.69198,-36.295792 C 425.17198,-36.415792 425.45198,-36.495792 425.73198,-36.575792 C 429.25197,-37.575791 431.13198,-39.735795 431.13198,-42.815792 C 431.13198,-47.055788 427.37197,-49.895792 421.69198,-49.895792 C 418.81198,-49.895792 416.41198,-49.135791 414.73198,-47.655792 C 413.45198,-46.495793 412.61198,-44.815791 412.61198,-43.295792 C 412.61198,-41.215794 414.17198,-39.655792 416.25198,-39.655792 C 418.17198,-39.655792 419.49198,-40.935794 419.49198,-42.815792 C 419.49198,-43.895791 419.05198,-44.735793 417.89198,-45.815792 C 417.69198,-46.015792 417.61198,-46.135792 417.61198,-46.295792 C 417.61198,-47.055792 419.13198,-47.815792 420.65198,-47.815792 C 423.17198,-47.815792 424.65198,-45.975789 424.65198,-42.855792 C 424.65198,-39.415796 423.45198,-37.255792 421.57198,-37.255792 C 421.25198,-37.255792 420.81198,-37.335792 420.17198,-37.455792 C 419.25198,-37.655792 419.01198,-37.695792 418.53198,-37.695792 C 417.61198,-37.695792 417.09198,-37.215791 417.09198,-36.375792 C 417.09198,-35.495793 417.69198,-34.855792 418.53198,-34.855792 C 418.69198,-34.855792 418.93198,-34.855792 419.17198,-34.895792 C 420.37198,-35.015792 421.01198,-35.095792 421.17198,-35.095792 C 423.65198,-35.095792 424.89198,-33.175789 424.89198,-29.415792 C 424.89198,-25.415796 423.21197,-23.095792 420.25198,-23.095792 C 418.57198,-23.095792 416.81198,-23.935793 416.81198,-24.775792 C 416.81198,-25.015792 416.93198,-25.255793 417.21198,-25.495792 C 418.41198,-26.655791 418.69198,-27.175793 418.69198,-28.295792 C 418.69198,-30.17579 417.21198,-31.615792 415.21198,-31.615792 C 413.09198,-31.615792 411.61198,-30.05579 411.61198,-27.815792 C 411.61198,-23.775796 415.53198,-21.015792 421.29198,-21.015792 C 424.21197,-21.015792 426.97198,-21.735794 428.81198,-23.015792 C 430.65198,-24.295791 431.85198,-26.735795 431.85198,-29.295792 C 431.85198,-31.81579 430.73198,-34.015793 428.89198,-35.095792 C 427.77198,-35.735792 426.81198,-36.015793 424.69198,-36.295792"
       id="text4176"
       style="font-size:40px;font-style:normal;font-variant:normal;font-weight:bold;font-stretch:normal;text-align:center;text-anchor:middle;fill:#000000;fill-opacity:1;stroke:none;stroke-width:1;stroke-linecap:butt;stroke-linejoin:miter;stroke-miterlimit:4;stroke-opacity:1;font-family:Century Schoolbook L;-inkscape-font-specification:Century Schoolbook L Medium" />
    <path
       d="M 438.4062,84.969183 C 458.63098,101.89362 499.35567,104.63538 537.90671,107.89378 C 615.73064,114.47161 737.65036,113.22614 787.32091,240.40942 C 849.60471,363.66915 767.48662,519.45343 649.69529,625.61902 C 580.89507,687.62883 495.2688,719.44359 434.36559,719.34498 C 301.25117,718.08358 255.67639,754.49767 239.76923,826.48152 C 244.07925,895.17167 316.18417,897.43718 370.1551,897.36057 C 555.95144,892.78807 613.40767,958.19578 750.09064,1085.7619 C 844.29598,1193.0088 983.67373,1365.0156 993.9901,1390.0863"
       transform="translate(167.71428,-284.56641)"
       id="path4038"
       style="fill:none;fill-rule:evenodd;stroke:#ff0000;stroke-width:6;stroke-linecap:butt;stroke-linejoin:miter;stroke-miterlimit:4;stroke-dasharray:none;stroke-opacity:1" />
    <path
       d="M 754.0789,1078.9592 A 8.0812206,8.0812206 0 1 1 737.91646,1078.9592 A 8.0812206,8.0812206 0 1 1 754.0789,1078.9592 z"
       transform="matrix(0.9280776,0,0,0.9280776,224.32252,-200.89117)"
       id="path4112"
       style="opacity:1;fill:#0000ee;fill-opacity:1;stroke:none;stroke-width:3;stroke-linecap:round;stroke-linejoin:miter;stroke-miterlimit:4;stroke-dasharray:none;stroke-opacity:1" />
    <path
       d="M 754.0789,1078.9592 A 8.0812206,8.0812206 0 1 1 737.91646,1078.9592 A 8.0812206,8.0812206 0 1 1 754.0789,1078.9592 z"
       transform="matrix(0.9280776,0,0,0.9280776,-147.91869,-388.77955)"
       id="path4130"
       style="opacity:1;fill:#0000ee;fill-opacity:1;stroke:none;stroke-width:3;stroke-linecap:round;stroke-linejoin:miter;stroke-miterlimit:4;stroke-dasharray:none;stroke-opacity:1" />
    <path
       d="M 754.0789,1078.9592 A 8.0812206,8.0812206 0 1 1 737.91646,1078.9592 A 8.0812206,8.0812206 0 1 1 754.0789,1078.9592 z"
       transform="matrix(0.9280776,0,0,0.9280776,-282.77406,-459.49022)"
       id="path4132"
       style="opacity:1;fill:#0000ee;fill-opacity:1;stroke:none;stroke-width:3;stroke-linecap:round;stroke-linejoin:miter;stroke-miterlimit:4;stroke-dasharray:none;stroke-opacity:1" />
    <path
       d="M 754.0789,1078.9592 A 8.0812206,8.0812206 0 1 1 737.91646,1078.9592 A 8.0812206,8.0812206 0 1 1 754.0789,1078.9592 z"
       transform="matrix(0.9280776,0,0,0.9280776,124.31742,-657.48012)"
       id="path4134"
       style="opacity:1;fill:#0000ee;fill-opacity:1;stroke:none;stroke-width:3;stroke-linecap:round;stroke-linejoin:miter;stroke-miterlimit:4;stroke-dasharray:none;stroke-opacity:1" />
  </g>
</svg>
